<svg width="34" height="22" viewBox="0 0 34 22" fill="none" xmlns="http://www.w3.org/2000/svg">
<g clip-path="url(#clip0)">
<path d="M30.6 0.59668H3.4C1.5249 0.59668 0 1.77399 0 3.22168V18.9717C0 20.4194 1.5249 21.5967 3.4 21.5967H30.6C32.4751 21.5967 34 20.4194 34 18.9717V3.22168C34 1.77399 32.4751 0.59668 30.6 0.59668ZM3.4 17.805V4.38835H30.6L30.6017 11.0967L30.6034 17.805H3.4Z" fill="#F70849"/>
<path d="M12.631 6.49668V7.86168L9.251 15.5967H6.963L10.226 8.21268H7.21V9.69468H5.338V6.49668H12.631ZM20.6925 6.49668V7.86168L17.3125 15.5967H15.0245L18.2875 8.21268H15.2715V9.69468H13.3995V6.49668H20.6925ZM28.754 6.49668V7.86168L25.374 15.5967H23.086L26.349 8.21268H23.333V9.69468H21.461V6.49668H28.754Z" fill="#F70849"/>
</g>
<defs>
<clipPath id="clip0">
<rect width="34" height="21" fill="white" transform="translate(0 0.59668)"/>
</clipPath>
</defs>
</svg>
