<svg class="SVGInline-svg SVG-component__content-svg" viewBox="0 0 25 24" fill="none" xmlns="http://www.w3.org/2000/svg">
	<g clip-path="url(#clip0_11468_5691)">
		<path fill-rule="evenodd" clip-rule="evenodd" d="M12.5004 22.999C18.5757 22.999 23.5002 18.0744 23.5002 11.999C23.5002 5.92364 18.5757 0.999023 12.5004 0.999023C6.42524 0.999023 1.50024 5.92364 1.50024 11.999C1.50024 18.0744 6.42524 22.999 12.5004 22.999Z" stroke="white" stroke-width="1.6">
		</path>
		<path fill-rule="evenodd" clip-rule="evenodd" d="M21.3574 11.9988C21.3574 8.44873 18.479 5.57031 14.9289 5.57031C11.3788 5.57031 8.50037 8.44873 8.50037 11.9988C8.50037 15.5489 11.3788 18.4273 14.9289 18.4273C18.479 18.4273 21.3574 15.5489 21.3574 11.9988ZM16.5978 9.53217V8.30664H16.3615C15.6882 8.30664 15.0751 8.46388 14.5222 8.77835C13.9693 9.09283 13.5431 9.52754 13.2435 10.0825C12.947 10.6344 12.7987 11.2572 12.7987 11.9509V12.5752C12.8049 13.1024 12.913 13.5679 13.123 13.9718C13.333 14.3757 13.6265 14.6871 14.0033 14.906C14.3801 15.1218 14.8079 15.2297 15.2866 15.2297C15.7283 15.2297 16.1299 15.1295 16.4912 14.9291C16.8557 14.7256 17.1383 14.4451 17.3391 14.0874C17.5429 13.7298 17.6449 13.3367 17.6449 12.9082C17.6449 12.2175 17.4719 11.6595 17.126 11.234C16.78 10.8086 16.3152 10.5958 15.7314 10.5958C15.194 10.5958 14.7492 10.7685 14.3971 11.1138C14.4836 10.6174 14.7137 10.2305 15.0874 9.95301C15.4642 9.67245 15.9445 9.53217 16.5283 9.53217H16.5978ZM14.6705 11.9324C14.8094 11.8368 14.9824 11.789 15.1894 11.789C15.4581 11.789 15.6727 11.8938 15.8333 12.1035C15.997 12.31 16.0789 12.5783 16.0789 12.9082C16.0789 13.2288 15.9986 13.4955 15.838 13.7082C15.6805 13.9209 15.4828 14.0273 15.2449 14.0273C14.655 14.0273 14.36 13.6018 14.36 12.7509V12.2838C14.428 12.1451 14.5315 12.0279 14.6705 11.9324Z" fill="white">
		</path>
	</g>
	<defs>
		<clipPath id="clip0_11468_5691">
			<rect width="24" height="24" fill="white" transform="translate(0.5)">
			</rect>
		</clipPath>
	</defs>
</svg>
