<svg width="25" height="24" viewBox="0 0 25 24" fill="none" xmlns="http://www.w3.org/2000/svg">
<path d="M18.6986 18.7353C19.1378 18.4005 19.2224 17.773 18.8876 17.3338C18.5528 16.8946 17.9254 16.8099 17.4861 17.1447L18.6986 18.7353ZM12.1523 20V21C12.1578 21 12.1632 21 12.1687 20.9999L12.1523 20ZM1.15234 12L0.271188 11.5272C0.117554 11.8135 0.112605 12.1566 0.257917 12.4472L1.15234 12ZM6.81924 6.8548C7.25819 6.51962 7.3423 5.89207 7.00712 5.45312C6.67194 5.01418 6.04439 4.93007 5.60544 5.26525L6.81924 6.8548ZM9.82443 3.26634C9.28668 3.39222 8.95279 3.93019 9.07866 4.46794C9.20453 5.00569 9.74251 5.33958 10.2803 5.21371L9.82443 3.26634ZM12.1523 4.00003L12.15 5.00003H12.1523V4.00003ZM23.1523 12L24.0343 12.4714C24.1872 12.1854 24.1918 11.8429 24.0468 11.5528L23.1523 12ZM20.2272 14.5462C19.8716 14.9688 19.9259 15.5996 20.3485 15.9552C20.7711 16.3108 21.4019 16.2565 21.7575 15.8339L20.2272 14.5462ZM15.004 14.8017C15.3805 14.3977 15.3581 13.7649 14.9541 13.3884C14.55 13.0119 13.9172 13.0342 13.5407 13.4383L15.004 14.8017ZM9.1708 12.8172L10.1397 12.5697L9.1708 12.8172ZM10.7141 10.6116C11.1181 10.2351 11.1405 9.60236 10.764 9.1983C10.3875 8.79425 9.75468 8.77191 9.35062 9.14841L10.7141 10.6116ZM17.4861 17.1447C15.9465 18.3183 14.0717 18.9685 12.136 19.0002L12.1687 20.9999C14.5312 20.9613 16.8194 20.1677 18.6986 18.7353L17.4861 17.1447ZM12.1523 19C9.05185 19 6.54786 17.2265 4.75688 15.3161C3.87051 14.3706 3.18778 13.4213 2.72676 12.7075C2.49687 12.3515 2.32374 12.0567 2.20947 11.8535C2.15237 11.752 2.11008 11.6736 2.08285 11.6222C2.06924 11.5964 2.05941 11.5775 2.05338 11.5657C2.05037 11.5599 2.04831 11.5558 2.04721 11.5537C2.04665 11.5526 2.04634 11.552 2.04627 11.5518C2.04623 11.5517 2.04626 11.5518 2.04634 11.552C2.04638 11.552 2.04649 11.5522 2.04651 11.5523C2.04663 11.5525 2.04677 11.5528 1.15234 12C0.257917 12.4472 0.258085 12.4476 0.258269 12.4479C0.25835 12.4481 0.25855 12.4485 0.258714 12.4488C0.259042 12.4495 0.259431 12.4503 0.259883 12.4512C0.260786 12.4529 0.261936 12.4552 0.263334 12.458C0.266129 12.4635 0.269913 12.4709 0.274682 12.4802C0.284219 12.4988 0.2977 12.5247 0.315097 12.5576C0.349884 12.6233 0.400367 12.7168 0.466315 12.834C0.598136 13.0684 0.792194 13.3985 1.04668 13.7926C1.55441 14.5787 2.30918 15.6294 3.29781 16.684C5.25682 18.7736 8.25284 21 12.1523 21V19ZM2.0335 12.4729C3.20997 10.2804 4.84171 8.36487 6.81924 6.8548L5.60544 5.26525C3.40125 6.94839 1.5825 9.08345 0.271188 11.5272L2.0335 12.4729ZM10.2803 5.21371C10.8931 5.07025 11.5206 4.99854 12.15 5.00002L12.1547 3.00003C11.3702 2.99818 10.5882 3.08756 9.82443 3.26634L10.2803 5.21371ZM12.1523 5.00003C15.2528 5.00003 17.7568 6.77359 19.5478 8.68397C20.4342 9.62943 21.1169 10.5787 21.5779 11.2926C21.8078 11.6485 21.9809 11.9434 22.0952 12.1465C22.1523 12.248 22.1946 12.3265 22.2218 12.3779C22.2354 12.4036 22.2453 12.4226 22.2513 12.4343C22.2543 12.4402 22.2564 12.4442 22.2575 12.4464C22.258 12.4475 22.2583 12.4481 22.2584 12.4482C22.2585 12.4483 22.2584 12.4483 22.2583 12.4481C22.2583 12.448 22.2582 12.4478 22.2582 12.4478C22.2581 12.4475 22.2579 12.4472 23.1523 12C24.0468 11.5528 24.0466 11.5525 24.0464 11.5521C24.0463 11.5519 24.0461 11.5515 24.046 11.5512C24.0456 11.5506 24.0453 11.5498 24.0448 11.5489C24.0439 11.5471 24.0428 11.5448 24.0414 11.5421C24.0386 11.5366 24.0348 11.5291 24.03 11.5198C24.0205 11.5013 24.007 11.4753 23.9896 11.4425C23.9548 11.3767 23.9043 11.2833 23.8384 11.166C23.7066 10.9317 23.5125 10.6015 23.258 10.2075C22.7503 9.42134 21.9955 8.37062 21.0069 7.31608C19.0479 5.22646 16.0519 3.00003 12.1523 3.00003V5.00003ZM22.2704 11.5286C21.6962 12.6028 21.0114 13.6142 20.2272 14.5462L21.7575 15.8339C22.6314 14.7953 23.3944 13.6684 24.0343 12.4714L22.2704 11.5286ZM13.5407 13.4383C13.0421 13.9734 12.2913 14.1936 11.5826 14.0127L11.0877 15.9505C12.505 16.3124 14.0068 15.8719 15.004 14.8017L13.5407 13.4383ZM11.5826 14.0127C10.874 13.8317 10.3207 13.2784 10.1397 12.5697L8.2019 13.0646C8.56384 14.4819 9.6705 15.5885 11.0877 15.9505L11.5826 14.0127ZM10.1397 12.5697C9.95873 11.8611 10.179 11.1102 10.7141 10.6116L9.35062 9.14841C8.28047 10.1456 7.83996 11.6474 8.2019 13.0646L10.1397 12.5697Z" fill="#5A5B5F"/>
<path d="M1.15234 1L23.1523 23" stroke="#5A5B5F" stroke-width="2" stroke-linecap="round" stroke-linejoin="round"/>
</svg>
