<svg class="SVGInline-svg SVG-component__content-svg" viewBox="0 0 24 24" fill="#fff" xmlns="http://www.w3.org/2000/svg"><path d="M8.46925 23C6.02367 14.9414 11.1911 11.999 11.1911 11.999C10.8296 16.2992 13.2732 19.6493 13.2732 19.6493C14.172 19.3781 15.8874 18.1108 15.8874 18.1108C15.8874 19.6493 14.9823 22.9981 14.9823 22.9981C14.9823 22.9981 18.1509 20.548 19.1484 16.4787C20.1446 12.4093 17.2509 8.32393 17.2509 8.32393C17.4253 11.2041 16.4509 14.0369 14.5419 16.2011C14.6374 16.0908 14.7175 15.9684 14.779 15.8357C15.122 15.1498 15.6727 13.367 15.3502 9.2387C14.8964 3.44366 9.64557 1 9.64557 1C10.0981 4.53087 8.74105 5.34436 5.56211 12.0465C2.38317 18.7473 8.46925 23 8.46925 23Z" fill="white"></path></svg>