<svg class="SVGInline-svg live-casino-category-filter-desktop__icon-svg" viewBox="0 0 24 24" fill="none" xmlns="http://www.w3.org/2000/svg">
	<path fill-rule="evenodd" clip-rule="evenodd" d="M6.39253 21.6H17.6075C18.6489 21.6 19.4961 20.7528 19.4961 19.7114V4.28865C19.4961 3.24726 18.6489 2.40002 17.6075 2.40002H6.39253C5.35115 2.40002 4.50391 3.24726 4.50391 4.28865V19.7114C4.50391 20.7528 5.35115 21.6 6.39253 21.6ZM4.53611 4.28865C4.53611 3.26501 5.36889 2.43223 6.39253 2.43223H17.6075C18.6311 2.43223 19.4639 3.26501 19.4639 4.28865V19.7114C19.4639 20.735 18.6311 21.5678 17.6075 21.5678H6.39253C5.36889 21.5678 4.53611 20.735 4.53611 19.7114V4.28865ZM6.39253 20.2203H17.6075C17.8881 20.2203 18.1164 19.992 18.1164 19.7114V4.28865C18.1164 4.00806 17.8881 3.77977 17.6075 3.77977H6.39253C6.11194 3.77977 5.88366 4.00806 5.88366 4.28865V19.7114C5.88366 19.992 6.11194 20.2203 6.39253 20.2203ZM8.45568 13.0049C8.80989 13.6288 9.29132 14.2193 9.88651 14.76C9.94619 14.8143 10.008 14.8714 10.0734 14.932L10.0739 14.9324L10.074 14.9325C10.3272 15.1668 10.6141 15.4323 10.9341 15.6677C11.2454 15.8967 11.6142 16.0177 12.0007 16.0177C12.3592 16.0177 12.7061 15.9122 13.0041 15.7126C13.5998 15.3134 14.147 14.8273 14.6305 14.2676C15.1881 13.6221 15.7901 12.8329 16.0267 11.8741C16.0834 11.6439 16.1164 11.4139 16.1247 11.1904C16.1434 10.6844 16.0397 10.2155 15.8166 9.79693C15.574 9.34197 15.2102 8.95997 14.7644 8.69226C14.3183 8.42433 13.8098 8.28268 13.294 8.28268C12.8366 8.28268 12.3932 8.39064 11.995 8.59413C11.5968 8.39061 11.1534 8.28268 10.696 8.28268C10.1549 8.28268 9.62647 8.4386 9.168 8.73361C8.71939 9.02222 8.36051 9.42942 8.13016 9.9111C7.86114 10.4737 7.79711 11.0878 7.93992 11.7363C8.02823 12.1377 8.19213 12.5408 8.45568 13.0049ZM9.37487 10.5063C9.61771 9.99851 10.1306 9.66243 10.696 9.66243C11.0885 9.66243 11.4453 9.81545 11.7099 10.0651C11.7895 10.1402 11.8922 10.1777 11.9949 10.1777C12.0977 10.1777 12.2004 10.1402 12.28 10.0651C12.5447 9.81545 12.9014 9.66243 13.2939 9.66243C13.8354 9.66243 14.3443 9.96827 14.599 10.4461C14.7131 10.6601 14.7547 10.8984 14.7458 11.1394C14.7408 11.2757 14.7197 11.4112 14.687 11.5436C14.5201 12.2204 14.0348 12.8466 13.5864 13.3656C13.1913 13.8229 12.7381 14.23 12.2361 14.5662C12.1648 14.6141 12.0826 14.6379 12.0007 14.6379C11.9131 14.6379 11.8256 14.6107 11.7517 14.5563C11.4939 14.3667 11.2458 14.1371 11.0103 13.9191L11.0103 13.9191C10.9439 13.8577 10.8786 13.7972 10.8142 13.7387C10.3629 13.3287 9.95717 12.855 9.65546 12.3236C9.34269 11.7728 9.08008 11.1228 9.37487 10.5063ZM9.44043 5.60002C9.44043 5.24656 9.15389 4.96002 8.80043 4.96002H7.52043C7.16697 4.96002 6.88043 5.24656 6.88043 5.60002C6.88043 5.95348 7.16697 6.24002 7.52043 6.24002H8.80043C9.15389 6.24002 9.44043 5.95348 9.44043 5.60002ZM16.4802 18.4C16.8336 18.4 17.1202 18.6866 17.1202 19.04C17.1202 19.3935 16.8336 19.68 16.4802 19.68H15.2002C14.8467 19.68 14.5602 19.3935 14.5602 19.04C14.5602 18.6866 14.8467 18.4 15.2002 18.4H16.4802Z" fill="white">
	</path>
	<path d="M11.9996 16.0338C11.6096 16.0338 11.2375 15.9117 10.9234 15.6807C10.6025 15.4446 10.315 15.1786 10.0614 14.9439C9.99598 14.8833 9.93418 14.8262 9.87453 14.772C9.27802 14.2301 8.79556 13.6383 8.44054 13.0129C8.17616 12.5472 8.01171 12.1427 7.92304 11.7398C7.77946 11.0877 7.84388 10.4701 8.11448 9.90417C8.34611 9.41977 8.70699 9.01033 9.15812 8.72011C9.61919 8.42345 10.1506 8.2666 10.6948 8.2666C11.1457 8.2666 11.5948 8.37359 11.9939 8.57608C12.393 8.37359 12.842 8.2666 13.2928 8.2666C13.8116 8.2666 14.3229 8.40902 14.7716 8.67846C15.2198 8.94768 15.5857 9.33182 15.8296 9.78935C16.0542 10.2105 16.1584 10.6821 16.1396 11.191C16.1314 11.4155 16.0982 11.6466 16.0411 11.878C15.8038 12.8401 15.2004 13.6312 14.6416 14.2782C14.1572 14.8389 13.6089 15.3261 13.0119 15.726C12.7113 15.9274 12.3612 16.0338 11.9996 16.0338ZM10.6948 8.29881C10.1568 8.29881 9.63143 8.45385 9.17554 8.74716C8.72944 9.03416 8.37259 9.43903 8.14353 9.91805C7.87608 10.4774 7.81248 11.088 7.95448 11.7329C8.04243 12.1325 8.20579 12.5342 8.46853 12.997C8.82191 13.6194 9.30224 14.2086 9.89621 14.7481C9.95592 14.8024 10.0178 14.8596 10.0832 14.9202C10.3363 15.1544 10.623 15.4198 10.9425 15.6548C11.251 15.8817 11.6165 16.0017 11.9995 16.0017C12.3548 16.0017 12.6986 15.8971 12.994 15.6992C13.5885 15.3009 14.1346 14.8157 14.6171 14.2571C15.1735 13.613 15.7741 12.8258 16.0098 11.8703C16.0663 11.6411 16.0992 11.4121 16.1073 11.1898C16.1259 10.6867 16.0229 10.2206 15.8011 9.80455C15.5599 9.35217 15.1981 8.97232 14.7549 8.70613C14.3113 8.43968 13.8056 8.29884 13.2928 8.29884C12.8442 8.29884 12.3976 8.40593 12.0011 8.60854L11.9938 8.61228L11.9864 8.60854C11.5901 8.4059 11.1435 8.29881 10.6948 8.29881ZM11.9996 14.6541C11.9059 14.6541 11.8165 14.6248 11.741 14.5693C11.4826 14.3791 11.2364 14.1513 10.9983 13.931C10.932 13.8696 10.8666 13.8091 10.8023 13.7507C10.3141 13.3072 9.9232 12.8297 9.64035 12.3316C9.34788 11.8165 9.05161 11.1427 9.35922 10.4994C9.60702 9.98114 10.1313 9.64632 10.6948 9.64632C11.0776 9.64632 11.4416 9.79086 11.7198 10.0534C11.7938 10.1231 11.8911 10.1616 11.9938 10.1616C12.0965 10.1616 12.1938 10.1231 12.2678 10.0534C12.5461 9.79086 12.9101 9.64632 13.2928 9.64632C13.8377 9.64632 14.3555 9.95725 14.6121 10.4385C14.7204 10.6418 14.7705 10.8778 14.7608 11.14C14.7559 11.2706 14.736 11.4078 14.7015 11.5475C14.534 12.2266 14.0493 12.853 13.5974 13.3762C13.1937 13.8436 12.7383 14.2485 12.244 14.5796C12.1713 14.6284 12.0868 14.6541 11.9996 14.6541ZM10.6948 9.67856C10.1436 9.67856 9.63076 10.0062 9.38827 10.5133C9.08707 11.1431 9.37973 11.8074 9.66834 12.3157C9.94948 12.8109 10.3383 13.2856 10.8239 13.7269C10.8883 13.7853 10.9537 13.8459 11.0201 13.9073C11.2576 14.127 11.503 14.3542 11.7601 14.5433C11.8299 14.5947 11.9128 14.6219 11.9996 14.6219C12.0804 14.6219 12.1587 14.598 12.226 14.5529C12.718 14.2233 13.1712 13.8203 13.573 13.3551C14.0225 12.8349 14.5043 12.2123 14.6702 11.5398C14.7042 11.4022 14.7238 11.2673 14.7285 11.1388C14.7381 10.8824 14.6893 10.6519 14.5836 10.4537C14.3326 9.98279 13.8259 9.67856 13.2928 9.67856C12.9183 9.67856 12.5622 9.82001 12.2899 10.0768C12.2099 10.1523 12.1047 10.1939 11.9938 10.1939C11.8829 10.1939 11.7777 10.1523 11.6977 10.0768C11.4255 9.82001 11.0693 9.67856 10.6948 9.67856Z" fill="white">
	</path>
	<path d="M11.9996 16.0338C11.6096 16.0338 11.2375 15.9117 10.9234 15.6807C10.6025 15.4446 10.315 15.1786 10.0614 14.9439C9.99598 14.8833 9.93418 14.8262 9.87453 14.772C9.27802 14.2301 8.79556 13.6383 8.44054 13.0129C8.17616 12.5472 8.01171 12.1427 7.92304 11.7398C7.77946 11.0877 7.84388 10.4701 8.11448 9.90417C8.34611 9.41977 8.70699 9.01033 9.15812 8.72011C9.61919 8.42345 10.1506 8.2666 10.6948 8.2666C11.1457 8.2666 11.5948 8.37359 11.9939 8.57608C12.393 8.37359 12.842 8.2666 13.2928 8.2666C13.8116 8.2666 14.3229 8.40902 14.7716 8.67846C15.2198 8.94768 15.5857 9.33182 15.8296 9.78935C16.0542 10.2105 16.1584 10.6821 16.1396 11.191C16.1314 11.4155 16.0982 11.6466 16.0411 11.878C15.8038 12.8401 15.2004 13.6312 14.6416 14.2782C14.1572 14.8389 13.6089 15.3261 13.0119 15.726C12.7113 15.9274 12.3612 16.0338 11.9996 16.0338ZM10.6948 8.29881C10.1568 8.29881 9.63143 8.45385 9.17554 8.74716C8.72944 9.03416 8.37259 9.43903 8.14353 9.91805C7.87608 10.4774 7.81248 11.088 7.95448 11.7329C8.04243 12.1325 8.20579 12.5342 8.46853 12.997C8.82191 13.6194 9.30224 14.2086 9.89621 14.7481C9.95592 14.8024 10.0178 14.8596 10.0832 14.9202C10.3363 15.1544 10.623 15.4198 10.9425 15.6548C11.251 15.8817 11.6165 16.0017 11.9995 16.0017C12.3548 16.0017 12.6986 15.8971 12.994 15.6992C13.5885 15.3009 14.1346 14.8157 14.6171 14.2571C15.1735 13.613 15.7741 12.8258 16.0098 11.8703C16.0663 11.6411 16.0992 11.4121 16.1073 11.1898C16.1259 10.6867 16.0229 10.2206 15.8011 9.80455C15.5599 9.35217 15.1981 8.97232 14.7549 8.70613C14.3113 8.43968 13.8056 8.29884 13.2928 8.29884C12.8442 8.29884 12.3976 8.40593 12.0011 8.60854L11.9938 8.61228L11.9864 8.60854C11.5901 8.4059 11.1435 8.29881 10.6948 8.29881ZM11.9996 14.6541C11.9059 14.6541 11.8165 14.6248 11.741 14.5693C11.4826 14.3791 11.2364 14.1513 10.9983 13.931C10.932 13.8696 10.8666 13.8091 10.8023 13.7507C10.3141 13.3072 9.9232 12.8297 9.64035 12.3316C9.34788 11.8165 9.05161 11.1427 9.35922 10.4994C9.60702 9.98114 10.1313 9.64632 10.6948 9.64632C11.0776 9.64632 11.4416 9.79086 11.7198 10.0534C11.7938 10.1231 11.8911 10.1616 11.9938 10.1616C12.0965 10.1616 12.1938 10.1231 12.2678 10.0534C12.5461 9.79086 12.9101 9.64632 13.2928 9.64632C13.8377 9.64632 14.3555 9.95725 14.6121 10.4385C14.7204 10.6418 14.7705 10.8778 14.7608 11.14C14.7559 11.2706 14.736 11.4078 14.7015 11.5475C14.534 12.2266 14.0493 12.853 13.5974 13.3762C13.1937 13.8436 12.7383 14.2485 12.244 14.5796C12.1713 14.6284 12.0868 14.6541 11.9996 14.6541ZM10.6948 9.67856C10.1436 9.67856 9.63076 10.0062 9.38827 10.5133C9.08707 11.1431 9.37973 11.8074 9.66834 12.3157C9.94948 12.8109 10.3383 13.2856 10.8239 13.7269C10.8883 13.7853 10.9537 13.8459 11.0201 13.9073C11.2576 14.127 11.503 14.3542 11.7601 14.5433C11.8299 14.5947 11.9128 14.6219 11.9996 14.6219C12.0804 14.6219 12.1587 14.598 12.226 14.5529C12.718 14.2233 13.1712 13.8203 13.573 13.3551C14.0225 12.8349 14.5043 12.2123 14.6702 11.5398C14.7042 11.4022 14.7238 11.2673 14.7285 11.1388C14.7381 10.8824 14.6893 10.6519 14.5836 10.4537C14.3326 9.98279 13.8259 9.67856 13.2928 9.67856C12.9183 9.67856 12.5622 9.82001 12.2899 10.0768C12.2099 10.1523 12.1047 10.1939 11.9938 10.1939C11.8829 10.1939 11.7777 10.1523 11.6977 10.0768C11.4255 9.82001 11.0693 9.67856 10.6948 9.67856Z" fill="white">
	</path>
	<path d="M4.51953 4.28878V19.7115C4.51953 20.7441 5.35955 21.5841 6.39205 21.5841H17.607C18.6395 21.5841 19.4795 20.7441 19.4795 19.7115V4.28878C19.4795 3.25625 18.6395 2.41626 17.607 2.41626H6.39205C5.35955 2.41626 4.51953 3.25625 4.51953 4.28878ZM18.0998 4.28878V19.7115C18.0998 19.9837 17.8792 20.2043 17.607 20.2043H6.39205C6.1199 20.2043 5.89928 19.9837 5.89928 19.7115V4.28878C5.89928 4.01663 6.1199 3.79601 6.39205 3.79601H17.607C17.8791 3.79601 18.0998 4.0166 18.0998 4.28878Z" fill="white">
	</path>
</svg>
