<svg class="SVGInline-svg SVG-component__content-svg" viewBox="0 0 24 24" fill="none" xmlns="http://www.w3.org/2000/svg"><path d="M12.9201 1.20706C12.6899 1.1645 12.2015 1.09861 11.8347 1.06054C11.4679 1.02255 11.0767 0.995556 10.9653 1.00061C10.854 1.00566 10.5165 1.03673 10.2155 1.06975C9.91442 1.10269 9.46997 1.17737 9.22777 1.23578C8.98564 1.29413 8.5075 1.43781 8.16524 1.55505C7.82304 1.67229 7.27166 1.90484 6.94002 2.07191C6.60844 2.23892 6.32587 2.37561 6.31216 2.37561C6.29851 2.37561 6.2873 2.28065 6.2873 2.16452C6.2873 2.04845 6.24242 1.8602 6.18756 1.74621C6.13275 1.63222 5.99508 1.47816 5.88167 1.40389C5.70053 1.28513 5.5537 1.26873 4.67083 1.26852C3.73051 1.26824 3.65208 1.27842 3.4473 1.42653C3.32695 1.51359 3.18501 1.67714 3.13188 1.78988C3.05016 1.96339 3.03259 2.58608 3.01765 5.83938L3 9.6838L3.14804 9.98472C3.23511 10.1618 3.38819 10.3396 3.51988 10.4167C3.71854 10.5331 3.86343 10.5456 4.8114 10.5278C5.86306 10.5081 5.8827 10.505 6.11021 10.3182C6.24789 10.2053 6.3725 10.0235 6.41854 9.86838C6.46104 9.72519 6.56699 9.45236 6.65399 9.26203C6.74099 9.0717 6.87511 8.8422 6.9522 8.75195C7.02921 8.66177 7.20031 8.51387 7.33245 8.42327C7.46453 8.33268 7.7688 8.22332 8.00861 8.18028C8.36247 8.11667 8.56591 8.12255 9.08855 8.21128C9.44272 8.27135 10.2396 8.43511 10.8594 8.57512C11.8792 8.80545 12.0874 8.83037 13.0489 8.83715C13.9766 8.84366 14.1769 8.82448 14.6266 8.68613C14.91 8.599 15.3678 8.40521 15.644 8.25551L16.1462 7.98337L15.8394 8.41504C15.6707 8.6525 15.2943 9.10195 15.0031 9.41374C14.7119 9.7256 14.1892 10.2239 13.8416 10.5211C13.4939 10.8184 12.9084 11.2951 12.5405 11.5806C12.1726 11.8661 11.5642 12.3675 11.1884 12.6948C10.8127 13.0221 10.3008 13.5219 10.0509 13.8055C9.80103 14.089 9.46159 14.5244 9.29655 14.7729C9.13156 15.0214 8.86721 15.5027 8.70918 15.8423C8.55109 16.182 8.34599 16.703 8.25333 17.0002C8.16066 17.2973 8.02729 17.8267 7.95697 18.1767C7.88665 18.5267 7.78734 19.2958 7.73628 19.8858C7.68521 20.4758 7.64317 21.2233 7.64291 21.5469C7.64259 21.98 7.67505 22.2123 7.76611 22.4278C7.83746 22.5968 7.97976 22.7796 8.10276 22.8602C8.30934 22.9955 8.41973 22.9998 11.7513 23C14.6772 23.0002 15.2168 22.9848 15.3897 22.8961C15.5013 22.8389 15.6577 22.689 15.7375 22.5631C15.8773 22.3422 15.8824 22.2785 15.8829 20.7466C15.8832 19.7504 15.9185 18.8755 15.9775 18.3978C16.0293 17.9791 16.1 17.4771 16.1347 17.2823C16.1694 17.0875 16.271 16.6176 16.3605 16.2382C16.45 15.8587 16.6078 15.2707 16.7112 14.9313C16.8146 14.592 17.0673 13.8628 17.2727 13.3108C17.4782 12.7589 17.9833 11.591 18.3952 10.7154C18.807 9.83994 19.4922 8.46957 19.9176 7.6702C20.3431 6.87082 20.9857 5.65057 21.3456 4.95854C21.9286 3.83747 22 3.66299 22 3.35874C22 3.11367 21.96 2.96078 21.8585 2.81752C21.7807 2.70768 21.5444 2.39983 21.3335 2.13337C21.1225 1.86691 20.8636 1.56529 20.758 1.46307C20.6524 1.36092 20.4584 1.25772 20.3269 1.23385C20.1594 1.20346 19.9738 1.23537 19.7076 1.34036C19.4986 1.42279 19.0667 1.58488 18.748 1.70053C18.2035 1.89813 18.1061 1.91128 17.1381 1.91827C16.5009 1.9229 15.9357 1.88961 15.657 1.83113C15.409 1.77915 14.786 1.63485 14.2724 1.51048C13.7589 1.38611 13.1503 1.24956 12.9201 1.20706Z" fill="white"></path></svg>