<svg class="SVGInline-svg SVG-component__content-svg" viewBox="0 0 24 24" fill="none" xmlns="http://www.w3.org/2000/svg"><path d="M12 1C5.95 1 1 5.95 1 12C1 18.05 5.95 23 12 23C18.05 23 23 18.05 23 12C23 5.95 18.05 1 12 1ZM19.5167 17.225L16.675 15.2083C16.3083 15.7583 15.7583 16.2167 15.2083 16.675L17.225 19.5167C16.125 20.25 14.9333 20.8 13.65 20.9833L13.0083 17.5917C12.3667 17.6833 11.6333 17.6833 10.9917 17.5917L10.35 20.9833C9.06667 20.7083 7.875 20.25 6.775 19.5167L8.79167 16.675C8.24167 16.3083 7.78333 15.7583 7.325 15.2083L4.48333 17.225C3.75 16.125 3.2 14.9333 3.01667 13.65L6.40833 13.0083C6.31667 12.3667 6.31667 11.6333 6.40833 10.9917L3.01667 10.35C3.2 9.06667 3.75 7.875 4.48333 6.775L7.325 8.79167C7.69167 8.24167 8.24167 7.78333 8.79167 7.325L6.775 4.48333C7.875 3.75 9.06667 3.2 10.35 3.01667L10.9917 6.40833C11.6333 6.31667 12.3667 6.31667 13.0083 6.40833L13.65 3.01667C14.9333 3.29167 16.125 3.75 17.225 4.48333L15.2083 7.325C15.7583 7.69167 16.2167 8.24167 16.675 8.79167L19.5167 6.775C20.25 7.875 20.8 9.06667 20.9833 10.35L17.5917 10.9917C17.6833 11.6333 17.6833 12.3667 17.5917 13.0083L20.9833 13.65C20.8 14.9333 20.25 16.125 19.5167 17.225Z" fill="white"></path><path fill-rule="evenodd" clip-rule="evenodd" d="M13.4997 12.1958L13.3991 12.5715L14.3158 14.1592C14.5908 14.6355 14.4565 15.1364 13.9802 15.4114C13.5039 15.6864 13.003 15.5522 12.728 15.0759L11.8114 13.4881L11.4357 13.3875L9.84801 14.3042C9.37169 14.5792 8.87082 14.4449 8.59582 13.9686C8.32082 13.4923 8.45503 12.9914 8.93134 12.7164L10.5191 11.7998L10.6197 11.4241L9.70304 9.83641C9.42804 9.36009 9.56225 8.85922 10.0386 8.58422C10.5149 8.30922 11.0158 8.44343 11.2908 8.91974L12.2074 10.5075L12.5831 10.6081L14.1708 9.69144C14.6471 9.41644 15.148 9.55065 15.423 10.027C15.698 10.5033 15.5638 11.0042 15.0875 11.2792L13.4997 12.1958ZM12.8033 11.5395C12.5283 11.0632 12.0274 10.9289 11.5511 11.2039C11.0748 11.4789 10.9405 11.9798 11.2155 12.4561C11.4905 12.9324 11.9914 13.0667 12.4677 12.7917C12.944 12.5167 13.0783 12.0158 12.8033 11.5395Z" fill="white"></path></svg>