<svg class="SVGInline-svg SVG-component__content-svg" viewBox="0 0 24 24" fill="none" xmlns="http://www.w3.org/2000/svg">
	<g clip-path="url(#clip0_5208_12640)">
		<path d="M16.5374 17.4432C17.1977 17.4432 17.733 16.6403 17.733 15.6498C17.733 14.6594 17.1977 13.8564 16.5374 13.8564C15.8771 13.8564 15.3418 14.6594 15.3418 15.6498C15.3418 16.6403 15.8771 17.4432 16.5374 17.4432Z" fill="white">
		</path>
		<path d="M18.909 11.5141C19.4962 11.5141 19.9723 10.7968 19.9723 9.91186C19.9723 9.02694 19.4962 8.30957 18.909 8.30957C18.3218 8.30957 17.8457 9.02694 17.8457 9.91186C17.8457 10.7968 18.3218 11.5141 18.909 11.5141Z" fill="white">
		</path>
		<path d="M23.1572 3.71834L12.3381 0.464767C12.3185 0.459867 12.294 0.454967 12.2744 0.450067C12.2548 0.445167 12.2303 0.440267 12.2107 0.435367C12.0686 0.410867 11.9265 0.410867 11.7844 0.435367C11.7648 0.440267 11.7403 0.445167 11.7207 0.450067C11.7011 0.454967 11.6766 0.459867 11.657 0.464767L9.24132 1.18996L7.29114 1.77796L1.82768 3.41944L0.842793 3.71344C0.342997 3.86534 0 4.32593 0 4.84533V19.1385C0 19.6628 0.342997 20.1185 0.842793 20.2704L11.657 23.5338C11.7697 23.5681 11.8824 23.5828 12 23.5828C12.1127 23.5828 12.2303 23.5681 12.343 23.5338L23.1572 20.2802C23.657 20.1283 24 19.6677 24 19.1483V4.85023C24 4.33083 23.657 3.87024 23.1572 3.71834ZM3.43977 17.8645C2.86648 17.8645 2.39608 17.1638 2.39608 16.3014C2.39608 15.439 2.86158 14.7383 3.43977 14.7383C4.01307 14.7383 4.48346 15.439 4.48346 16.3014C4.48346 17.1638 4.01307 17.8645 3.43977 17.8645ZM5.90445 13.4105C5.27236 13.4105 4.75786 12.6363 4.75786 11.6857C4.75786 10.7351 5.27236 9.96089 5.90445 9.96089C6.53655 9.96089 7.05104 10.7351 7.05104 11.6857C7.05104 12.6363 6.54145 13.4105 5.90445 13.4105ZM8.71703 8.9907C8.05553 8.9907 7.52144 8.1871 7.52144 7.19731C7.52144 6.20752 8.05553 5.40393 8.71703 5.40393C9.37852 5.40393 9.91262 6.20752 9.91262 7.19731C9.91262 8.1871 9.37852 8.9907 8.71703 8.9907ZM21.6333 18.2663L13.1809 20.8094V3.18914L21.6333 5.73222V18.2663Z" fill="white">
		</path>
	</g>
	<defs>
		<clipPath id="clip0_5208_12640">
			<rect width="24" height="24" fill="white">
			</rect>
		</clipPath>
	</defs>
</svg>
