<svg width="36" height="36" viewBox="0 0 36 36" fill="none" xmlns="http://www.w3.org/2000/svg">
<path d="M23.7583 24V22.3333C23.7583 20.4924 22.4156 19 20.7592 19H14.7609C13.1045 19 11.7617 20.4924 11.7617 22.3333V24" stroke="#ECECEC" stroke-width="2" stroke-linecap="round" stroke-linejoin="round"/>
<path fill-rule="evenodd" clip-rule="evenodd" d="M17.7609 16C19.4173 16 20.76 14.6569 20.76 13C20.76 11.3431 19.4173 10 17.7609 10C16.1045 10 14.7617 11.3431 14.7617 13C14.7617 14.6569 16.1045 16 17.7609 16Z" stroke="#ECECEC" stroke-width="2" stroke-linecap="round" stroke-linejoin="round"/>
<path fill-rule="evenodd" clip-rule="evenodd" d="M18 33C26.2843 33 33 26.2843 33 18C33 9.71573 26.2843 3 18 3C9.71573 3 3 9.71573 3 18C3 26.2843 9.71573 33 18 33Z" stroke="#ECECEC" stroke-width="2" stroke-linecap="round" stroke-linejoin="round"/>
</svg>
